<svg width="20" height="20" viewBox="0 0 20 20" fill="none" xmlns="http://www.w3.org/2000/svg">
<circle cx="10" cy="10" r="10" fill="#231F20"/>
<g clip-path="url(#clip0_115_26)">
<path d="M14.8514 5.62034C13.9589 5.21784 13.0022 4.92034 12.0018 4.75117C11.9929 4.74946 11.9837 4.75056 11.9754 4.75433C11.9671 4.75809 11.9603 4.76432 11.9557 4.77217C11.8332 4.98742 11.6967 5.26801 11.601 5.48967C10.54 5.33114 9.46132 5.33114 8.40029 5.48967C8.29374 5.24401 8.17358 5.00447 8.04038 4.77217C8.03586 4.76423 8.02903 4.75785 8.0208 4.75389C8.01256 4.74993 8.00332 4.74857 7.99429 4.75C6.99446 4.91917 6.03779 5.21667 5.14471 5.61976C5.13703 5.62298 5.13051 5.62847 5.12604 5.63551C3.31071 8.30426 2.81313 10.9071 3.05754 13.4773C3.05822 13.4836 3.06018 13.4896 3.06328 13.4952C3.06639 13.5007 3.07059 13.5055 3.07563 13.5093C4.13519 14.2808 5.31699 14.8684 6.57154 15.2477C6.58029 15.2504 6.58964 15.2504 6.59838 15.2477C6.60712 15.2449 6.61485 15.2397 6.62054 15.2325C6.89051 14.8715 7.12973 14.4884 7.33571 14.0874C7.33857 14.0819 7.34022 14.0759 7.34054 14.0697C7.34087 14.0636 7.33986 14.0574 7.33759 14.0516C7.33532 14.0459 7.33185 14.0407 7.3274 14.0364C7.32294 14.0321 7.31762 14.0288 7.31179 14.0268C6.93496 13.8848 6.56984 13.7136 6.21979 13.5146C6.2135 13.511 6.2082 13.5059 6.20437 13.4998C6.20053 13.4936 6.19828 13.4866 6.19782 13.4794C6.19736 13.4722 6.1987 13.4649 6.20172 13.4583C6.20474 13.4518 6.20934 13.446 6.21513 13.4417C6.28863 13.3874 6.36213 13.3308 6.43213 13.2743C6.43843 13.2692 6.44602 13.2659 6.45405 13.2649C6.46208 13.2639 6.47024 13.2651 6.47763 13.2684C8.76838 14.2974 11.2493 14.2974 13.5132 13.2684C13.5206 13.2649 13.5289 13.2635 13.537 13.2644C13.5452 13.2654 13.5529 13.2686 13.5593 13.2737C13.6293 13.3308 13.7022 13.3874 13.7763 13.4417C13.7821 13.4459 13.7868 13.4516 13.7899 13.4581C13.793 13.4646 13.7945 13.4718 13.7941 13.4791C13.7938 13.4863 13.7917 13.4933 13.7879 13.4995C13.7842 13.5057 13.779 13.5109 13.7728 13.5146C13.424 13.7153 13.0611 13.885 12.6802 14.0262C12.6744 14.0283 12.669 14.0316 12.6646 14.036C12.6601 14.0403 12.6566 14.0456 12.6544 14.0514C12.6521 14.0572 12.6511 14.0634 12.6515 14.0696C12.6518 14.0758 12.6534 14.0819 12.6563 14.0874C12.8663 14.4882 13.1066 14.8697 13.3709 15.2319C13.3764 15.2394 13.384 15.2449 13.3928 15.2478C13.4016 15.2508 13.411 15.2509 13.4199 15.2483C14.6766 14.87 15.8603 14.2821 16.921 13.5093C16.9262 13.5057 16.9306 13.501 16.9338 13.4956C16.937 13.4902 16.939 13.4841 16.9397 13.4778C17.2314 10.5063 16.4509 7.92451 14.8695 5.63667C14.8656 5.62924 14.8592 5.62344 14.8514 5.62034ZM7.67813 11.9122C6.98863 11.9122 6.41988 11.2886 6.41988 10.5238C6.41988 9.7585 6.97754 9.1355 7.67813 9.1355C8.38396 9.1355 8.94746 9.76375 8.93638 10.5238C8.93638 11.2892 8.37871 11.9122 7.67813 11.9122V11.9122ZM12.3302 11.9122C11.6401 11.9122 11.072 11.2886 11.072 10.5238C11.072 9.7585 11.629 9.1355 12.3302 9.1355C13.036 9.1355 13.5995 9.76375 13.5885 10.5238C13.5885 11.2892 13.0366 11.9122 12.3302 11.9122V11.9122Z" fill="white"/>
</g>
<defs>
<clipPath id="clip0_115_26">
<rect width="14" height="14" fill="white" transform="translate(3 3)"/>
</clipPath>
</defs>
</svg>
