<svg width="20" height="20" viewBox="0 0 20 20" fill="none" xmlns="http://www.w3.org/2000/svg">
<circle cx="10" cy="10" r="10" fill="#231F20"/>
<path fill-rule="evenodd" clip-rule="evenodd" d="M10 3C6.1325 3 3 6.1325 3 10C3 13.0975 5.00375 15.7138 7.78625 16.6413C8.13625 16.7025 8.2675 16.4925 8.2675 16.3088C8.2675 16.1425 8.25875 15.5913 8.25875 15.005C6.5 15.3288 6.045 14.5763 5.905 14.1825C5.82625 13.9813 5.485 13.36 5.1875 13.1938C4.9425 13.0625 4.5925 12.7388 5.17875 12.73C5.73 12.7213 6.12375 13.2375 6.255 13.4475C6.885 14.5063 7.89125 14.2088 8.29375 14.025C8.355 13.57 8.53875 13.2638 8.74 13.0888C7.1825 12.9138 5.555 12.31 5.555 9.6325C5.555 8.87125 5.82625 8.24125 6.2725 7.75125C6.2025 7.57625 5.9575 6.85875 6.3425 5.89625C6.3425 5.89625 6.92875 5.7125 8.2675 6.61375C8.8275 6.45625 9.4225 6.3775 10.0175 6.3775C10.6125 6.3775 11.2075 6.45625 11.7675 6.61375C13.1062 5.70375 13.6925 5.89625 13.6925 5.89625C14.0775 6.85875 13.8325 7.57625 13.7625 7.75125C14.2088 8.24125 14.48 8.8625 14.48 9.6325C14.48 12.3188 12.8437 12.9138 11.2862 13.0888C11.54 13.3075 11.7587 13.7275 11.7587 14.3838C11.7587 15.32 11.75 16.0725 11.75 16.3088C11.75 16.4925 11.8812 16.7113 12.2312 16.6413C13.6209 16.1721 14.8284 15.279 15.6838 14.0876C16.5393 12.8963 16.9996 11.4667 17 10C17 6.1325 13.8675 3 10 3Z" fill="white"/>
</svg>
