<svg width="9" height="9" viewBox="0 0 9 9" fill="none" xmlns="http://www.w3.org/2000/svg">
<path d="M1.79998 6.79998C1.69998 6.69998 1.59996 6.69998 1.59996 6.79998L1.2 7.2C1.1 7.3 1.1 7.40001 1.2 7.40001L1.7 7.90001C1.8 8.00001 1.90001 8.00001 1.90001 7.90001L2.29998 7.49999C2.39998 7.39999 2.39998 7.29998 2.29998 7.29998L1.79998 6.79998ZM1.7 7.49999L1.49999 7.29998L1.59996 7.2L1.79998 7.40001L1.7 7.49999Z" fill="white"/>
<path d="M2.1 6.40005C1.9 6.20005 1.70005 6.5 1.90005 6.6L2.40005 7.1C2.60005 7.3 2.8 7.00005 2.6 6.90005L2.1 6.40005Z" fill="white"/>
<path d="M8.59996 1.59999L8.40001 1.40004C8.60001 1.30004 8.59996 1.19999 8.59996 1.09999C8.59996 0.89999 8.39997 0.900039 8.29997 0.900039C8.19997 0.900039 8.10001 0.900039 7.90001 0.900039L7.7 0.700027C7.5 0.500027 7.29998 0.800039 7.49998 0.900039H7.40001L7.2 0.700027C7 0.500027 6.79998 0.800039 6.99998 0.900039H6.90001L6.79997 0.800002C6.59997 0.600002 6.39996 0.900015 6.59996 1.00001C6.69996 1.10001 6.59996 1.10003 6.59996 1.20003L6.49998 1.59999L4.40001 3.70003C4.40001 3.50003 4.40001 3.29999 4.40001 3.09999C4.40001 2.69999 4.59997 2.39999 4.79997 2.09999C4.89997 1.99999 4.79999 1.9 4.7 1.8C3.9 1.7 3.00001 3.00001 2.90001 3.50001C2.90001 3.70001 2.89997 3.80001 2.79997 4.00001C2.69997 4.20001 2.4 4.3 2.2 4.3C2.1 4.3 2.00001 4.3 1.90001 4.3C1.70001 4.3 1.49997 4.30004 1.29997 4.40004C0.899971 4.50004 0.600007 4.69999 0.400007 5.09999C0.200007 5.49999 0.0999949 6.00004 0.199995 6.40004C0.299995 6.80004 0.500007 7.19999 0.900007 7.59999C1.20001 7.89999 1.50001 8.20004 1.90001 8.40004C2.30001 8.60004 2.60001 8.70003 2.90001 8.70003C3.20001 8.70003 3.39998 8.59999 3.49998 8.59999C3.99998 8.39999 4.1 7.90001 4.2 7.50001C4.2 7.40001 4.29997 7.30003 4.29997 7.20003C4.39997 6.80003 4.69996 6.5 5.09996 6.3C5.19996 6.3 5.30001 6.20003 5.40001 6.20003C5.70001 6.10003 6.1 5.99999 6.2 5.59999C6.29999 5.29999 6.09997 5.09999 5.79997 5.09999L4.99998 5.20003H4.90001C4.90001 5.20003 4.89997 5.19999 4.79997 5.09999C4.79997 4.99999 4.7 4.9 4.7 4.8L7.2 2.3H7.49998C7.59998 2.3 7.7 2.30003 7.7 2.20003L7.79997 2.3C7.99997 2.5 8.19998 2.19999 7.99998 2.09999L7.90001 2.00001C7.90001 2.00001 7.89998 1.90004 7.99998 1.90004L8.09996 2.00001C8.29996 2.20001 8.49997 1.9 8.29997 1.8L8.09996 1.59999C8.09996 1.59999 8.1 1.60001 8.2 1.50001L8.40001 1.70003C8.60001 2.00003 8.79996 1.79999 8.59996 1.59999ZM2.90001 6.40004L2.7 6.20003L6.7 2.20003L6.90001 2.40004L2.90001 6.40004ZM4.40001 5.50001C4.40001 5.60001 4.49996 5.7 4.59996 5.8C4.69996 5.8 4.80001 5.8 4.90001 5.8L5.7 5.70003C5.6 5.90003 5.29996 5.99999 5.09996 6.09999C4.99996 6.09999 4.89997 6.20003 4.79997 6.20003C4.39997 6.40003 3.99997 6.8 3.79997 7.3C3.79997 7.4 3.7 7.49999 3.7 7.59999C3.6 7.99999 3.49999 8.30001 3.2 8.50001C2.79999 8.70001 2.19998 8.5 1.99998 8.3C1.39998 8 0.699983 7.30001 0.499983 6.50001C0.399983 6.20001 0.499995 5.80001 0.699995 5.50001C0.799995 5.30001 1.00001 5.10001 1.40001 5.00001C1.60001 5.00001 1.70001 5.00001 1.90001 5.00001C2.00001 5.00001 2.1 5.00001 2.2 5.00001C2.6 5.00001 2.89996 4.80001 3.09996 4.50001C3.19996 4.40001 3.2 4.20001 3.2 4.00001C3.29999 3.60001 3.49997 3.20004 3.79997 2.90004C3.99997 2.70004 4.19997 2.50001 4.29997 2.50001C4.19997 2.70001 4.09998 3 3.99998 3.3C3.99998 3.5 3.99998 3.70001 3.99998 4.00001C3.99998 4.10001 3.99998 4.10003 3.99998 4.20003L2.2 6.00001C2.1 6.10001 2.1 6.20003 2.2 6.20003L2.7 6.70003C2.79999 6.80003 2.90001 6.80003 2.90001 6.70003L4.29997 5.3C4.39997 5.4 4.40001 5.40001 4.40001 5.50001C4.50001 5.60001 4.40001 5.40001 4.40001 5.50001ZM7.40001 2.09999H7.09996C6.99996 1.99999 6.89997 1.9 6.79997 1.8L6.90001 1.50001C7.00001 1.40001 7.19996 1.3 7.59996 1.3C7.79996 1.3 7.99996 1.3 8.09996 1.3C7.79996 1.5 7.59998 1.89999 7.49998 2.09999C7.49998 2.09999 7.50001 2.09999 7.40001 2.09999Z" fill="white"/>
<path d="M1.40002 5.70001C1.50002 5.70001 1.5 5.6 1.5 5.5C1.5 5.4 1.39999 5.40002 1.29999 5.40002C1.09999 5.50002 0.700012 5.59998 0.700012 6.09998C0.700012 6.29998 1 6.29998 1 6.09998C1.1 5.79998 1.20002 5.80001 1.40002 5.70001C1.50002 5.70001 1.20002 5.80001 1.40002 5.70001Z" fill="white"/>
<path d="M2 5.59998C2.1 5.59998 2.20001 5.50002 2.20001 5.40002C2.20001 5.30002 2.1 5.20001 2 5.20001C1.9 5.20001 1.79999 5.30002 1.79999 5.40002C1.89999 5.50002 1.9 5.59998 2 5.59998Z" fill="white"/>
</svg>
