<svg width="11" height="6" viewBox="0 0 11 6" fill="none" xmlns="http://www.w3.org/2000/svg">
<path d="M10 1.99998C9.9 1.89998 9.80001 1.79996 9.60001 1.79996H9.39999V1.59995C9.39999 1.29995 9.09999 0.999976 8.79999 0.999976H8.5V0.699988C8.5 0.499988 8.39999 0.399963 8.29999 0.299963C8.09999 0.0999634 7.7 0.0999634 7.5 0.299963C7.4 0.399963 7.29999 0.599988 7.29999 0.699988V2.19999H3.39999V0.699988C3.39999 0.499988 3.30001 0.399963 3.20001 0.299963C3.00001 0.0999634 2.59999 0.0999634 2.39999 0.299963C2.29999 0.399963 2.20001 0.599988 2.20001 0.699988V0.999976H1.89999C1.69999 0.999976 1.6 1.09999 1.5 1.19999C1.4 1.29999 1.29999 1.39995 1.29999 1.59995V1.79996H1C0.9 1.79996 0.700006 1.89998 0.600006 1.99998C0.500006 2.09998 0.5 2.3 0.5 2.4V3.29996C0.5 3.49996 0.600006 3.59999 0.600006 3.69999C0.700006 3.79999 0.8 3.9 1 3.9H1.20001V4.09995C1.20001 4.19995 1.29999 4.39998 1.39999 4.49998C1.49999 4.59998 1.69999 4.69999 1.79999 4.69999H2.10001V4.99998C2.10001 5.19998 2.19999 5.3 2.29999 5.4C2.39999 5.5 2.60001 5.59995 2.70001 5.59995C2.90001 5.59995 3.00001 5.5 3.10001 5.4C3.20001 5.3 3.29999 5.09998 3.29999 4.99998V3.49998H7.20001V4.99998C7.20001 5.19998 7.29999 5.3 7.39999 5.4C7.49999 5.5 7.69999 5.59995 7.79999 5.59995C7.99999 5.59995 8.10001 5.5 8.20001 5.4C8.30001 5.3 8.39999 5.09998 8.39999 4.99998V4.69999H8.70001C9.00001 4.69999 9.29999 4.39995 9.29999 4.09995V3.9H9.5C9.6 3.9 9.79999 3.79999 9.89999 3.69999C9.99999 3.59999 10 3.39996 10 3.29996V2.4C10.1 2.2 10.1 2.09998 10 1.99998ZM1 3.59995C0.9 3.59995 0.899988 3.59998 0.799988 3.49998C0.699988 3.39998 0.700012 3.39996 0.700012 3.29996V2.4C0.700012 2.3 0.699988 2.19999 0.799988 2.19999C0.799988 2.09999 0.9 2.09995 1 2.09995H1.20001V3.59995H1ZM1.79999 4.29996C1.69999 4.29996 1.70001 4.29999 1.60001 4.19999C1.60001 4.19999 1.5 4.09998 1.5 3.99998V1.49998C1.5 1.39998 1.50001 1.39996 1.60001 1.29996C1.70001 1.29996 1.69999 1.19999 1.79999 1.19999H2.10001V4.19999H1.79999V4.29996ZM3.10001 4.99998C3.10001 5.09998 3.1 5.09999 3 5.19999C2.9 5.29999 2.70001 5.29999 2.60001 5.19999C2.50001 5.09999 2.5 5.09998 2.5 4.99998V0.699988C2.5 0.599988 2.50001 0.599976 2.60001 0.499976C2.70001 0.399976 2.69999 0.4 2.79999 0.4C2.89999 0.4 3 0.399976 3 0.499976C3.1 0.599976 3.10001 0.599988 3.10001 0.699988V4.99998ZM3.39999 3.09995V2.49998H7.29999V3.09995H3.39999ZM8.20001 4.99998C8.20001 5.09998 8.20001 5.09999 8.10001 5.19999C8.00001 5.29999 7.80001 5.29999 7.70001 5.19999C7.60001 5.09999 7.60001 5.09998 7.60001 4.99998V0.699988C7.60001 0.599988 7.60001 0.599976 7.70001 0.499976C7.80001 0.399976 7.79999 0.4 7.89999 0.4C7.99999 0.4 8.10001 0.399976 8.10001 0.499976C8.20001 0.599976 8.20001 0.599988 8.20001 0.699988V4.99998ZM9.10001 4.09995C9.10001 4.29995 8.99999 4.4 8.79999 4.4H8.5V1.4H8.79999C8.99999 1.4 9.10001 1.49999 9.10001 1.69999V4.09995ZM9.79999 3.29996C9.79999 3.39996 9.80001 3.49998 9.70001 3.49998C9.70001 3.59998 9.6 3.59995 9.5 3.59995H9.29999V2.09995H9.5C9.6 2.09995 9.60001 2.09999 9.70001 2.19999C9.70001 2.29999 9.79999 2.3 9.79999 2.4V3.29996Z" fill="white"/>
</svg>
