<svg width="20" height="20" viewBox="0 0 20 20" fill="none" xmlns="http://www.w3.org/2000/svg">
<circle cx="10" cy="10" r="10" fill="#231F20"/>
<path d="M15.8332 13.6667V9.10151C15.8332 8.7839 15.7684 8.46962 15.6427 8.17794C15.517 7.88625 15.3331 7.62329 15.1023 7.40517L10.8013 3.34051C10.5847 3.13571 10.2979 3.02161 9.99984 3.02161C9.70174 3.02161 9.41495 3.13571 9.19834 3.34051L4.89742 7.40517C4.66655 7.62329 4.48264 7.88625 4.35696 8.17794C4.23128 8.46962 4.16647 8.7839 4.1665 9.10151V13.6667C4.1665 13.9761 4.28942 14.2728 4.50821 14.4916C4.72701 14.7104 5.02375 14.8333 5.33317 14.8333H14.6665C14.9759 14.8333 15.2727 14.7104 15.4915 14.4916C15.7103 14.2728 15.8332 13.9761 15.8332 13.6667Z" stroke="white" stroke-width="1.33333" stroke-linecap="round" stroke-linejoin="round"/>
</svg>
