<svg width="8" height="8" viewBox="0 0 8 8" fill="none" xmlns="http://www.w3.org/2000/svg">
<path d="M1.90002 4.09998V6.79999C1.90002 6.99999 2.00004 7.09998 2.20004 7.09998C2.40004 7.09998 2.50003 6.99999 2.50003 6.79999V4.09998C2.50003 3.89998 2.40004 3.79999 2.20004 3.79999C2.00004 3.89999 1.90002 3.99998 1.90002 4.09998Z" fill="white"/>
<path d="M1 7.09998H1.60001V3.90002C1.60001 2.50002 2.70001 1.40002 4.10001 1.40002C5.50001 1.40002 6.60001 2.50002 6.60001 3.90002C6.60001 3.90002 6.60001 3.9 6.60001 4V7.20001H7.20001C7.60001 7.20001 8 6.80002 8 6.40002V4.70001C8 4.30001 7.79999 4.00002 7.39999 3.90002C7.39999 2.10002 5.9 0.599976 4 0.599976C2.2 0.599976 0.700006 2.10002 0.600006 3.90002C0.300006 4.00002 0 4.30001 0 4.70001V6.40002C0.2 6.80002 0.5 7.09998 1 7.09998Z" fill="white"/>
<path d="M5.79999 4.09998V6.79999C5.79999 6.99999 5.90001 7.09998 6.10001 7.09998C6.30001 7.09998 6.39999 6.99999 6.39999 6.79999V4.09998C6.39999 3.89998 6.30001 3.79999 6.10001 3.79999C5.90001 3.89999 5.79999 3.99998 5.79999 4.09998Z" fill="white"/>
</svg>
