<svg width="20" height="20" viewBox="0 0 20 20" fill="none" xmlns="http://www.w3.org/2000/svg">
<circle cx="10" cy="10" r="10" fill="#231F20"/>
<g clip-path="url(#clip0_115_36)">
<path d="M12.625 3.875C12.8571 3.875 13.0796 3.96719 13.2437 4.13128C13.4078 4.29538 13.5 4.51794 13.5 4.75V15.25C13.5 15.4821 13.4078 15.7046 13.2437 15.8687C13.0796 16.0328 12.8571 16.125 12.625 16.125H7.375C7.14294 16.125 6.92038 16.0328 6.75628 15.8687C6.59219 15.7046 6.5 15.4821 6.5 15.25V4.75C6.5 4.51794 6.59219 4.29538 6.75628 4.13128C6.92038 3.96719 7.14294 3.875 7.375 3.875H12.625ZM7.375 3C6.91087 3 6.46575 3.18437 6.13756 3.51256C5.80937 3.84075 5.625 4.28587 5.625 4.75V15.25C5.625 15.7141 5.80937 16.1592 6.13756 16.4874C6.46575 16.8156 6.91087 17 7.375 17H12.625C13.0891 17 13.5342 16.8156 13.8624 16.4874C14.1906 16.1592 14.375 15.7141 14.375 15.25V4.75C14.375 4.28587 14.1906 3.84075 13.8624 3.51256C13.5342 3.18437 13.0891 3 12.625 3H7.375Z" fill="white"/>
<path d="M10 15.25C10.2321 15.25 10.4546 15.1578 10.6187 14.9937C10.7828 14.8296 10.875 14.6071 10.875 14.375C10.875 14.1429 10.7828 13.9204 10.6187 13.7563C10.4546 13.5922 10.2321 13.5 10 13.5C9.76794 13.5 9.54538 13.5922 9.38128 13.7563C9.21719 13.9204 9.125 14.1429 9.125 14.375C9.125 14.6071 9.21719 14.8296 9.38128 14.9937C9.54538 15.1578 9.76794 15.25 10 15.25Z" fill="white"/>
</g>
<defs>
<clipPath id="clip0_115_36">
<rect width="14" height="14" fill="white" transform="translate(3 3)"/>
</clipPath>
</defs>
</svg>
