<svg width="11" height="8" viewBox="0 0 11 8" fill="none" xmlns="http://www.w3.org/2000/svg">
<path d="M1.10001 7.09998C1.30001 7.19998 1.59999 7.1 1.89999 7C2.39999 6.8 3 6.40002 3.5 5.90002C3.9 5.50002 4.59999 5.29999 5.29999 5.29999C5.99999 5.29999 6.80001 5.50002 7.10001 5.90002C7.70001 6.40002 8.20001 6.8 8.70001 7C9.00001 7.1 9.3 7.19998 9.5 7.09998C9.8 6.99998 10 6.8 10.1 6.5C10.2 6.2 10.3 5.69998 10.3 5.09998C10.3 4.49998 10.2 3.89999 10 3.29999C9.8 2.69999 9.69999 2.19999 9.39999 1.79999C8.49999 0.299988 7.59999 0.499988 6.39999 0.799988C5.99999 0.899988 5.60001 1 5.20001 1H5.10001C4.70001 1 4.29999 0.899988 3.89999 0.799988C2.79999 0.499988 1.79999 0.299988 0.899994 1.79999C0.699994 2.19999 0.499988 2.79999 0.299988 3.29999C0.0999878 3.89999 0 4.49998 0 5.09998C0 5.69998 1.22041e-05 6.2 0.200012 6.5C0.600012 6.8 0.800006 6.99998 1.10001 7.09998ZM0.799988 5.09998C0.799988 4.59998 0.900006 3.90002 1.10001 3.40002C1.20001 2.90002 1.40001 2.4 1.60001 2C2.30001 0.8 3.10001 1.00001 4.10001 1.20001C4.50001 1.30001 4.89999 1.40002 5.29999 1.40002H5.39999C5.89999 1.40002 6.30001 1.30001 6.60001 1.20001C7.60001 1.00001 8.40001 0.7 9.10001 2C9.30001 2.4 9.50001 2.90002 9.60001 3.40002C9.70001 4.00002 9.79999 4.59998 9.89999 5.09998C9.89999 5.69998 9.89999 6.09999 9.79999 6.29999C9.69999 6.49999 9.6 6.59998 9.5 6.59998C9.4 6.59998 9.2 6.6 9 6.5C8.6 6.3 8 5.9 7.5 5.5C7 5 6.19999 4.79999 5.29999 4.79999C4.49999 4.79999 3.60001 5 3.10001 5.5C2.60001 6 2.10001 6.4 1.60001 6.5C1.40001 6.6 1.20001 6.59998 1.10001 6.59998C1.00001 6.59998 0.899988 6.49999 0.799988 6.29999C0.799988 6.09999 0.799988 5.69998 0.799988 5.09998Z" fill="white"/>
<path d="M2.29996 3.90002C2.29996 4.10002 2.39997 4.20002 2.49997 4.40002C2.59997 4.50002 2.79997 4.59998 2.99997 4.59998C3.19997 4.59998 3.39997 4.50002 3.49997 4.40002C3.59997 4.30002 3.69998 4.10002 3.69998 3.90002C3.89998 3.90002 3.99998 3.80001 4.19998 3.70001C4.29998 3.60001 4.39996 3.40001 4.39996 3.20001C4.39996 3.00001 4.29998 2.80001 4.19998 2.70001C4.09998 2.60001 3.89998 2.5 3.69998 2.5C3.69998 2.3 3.59997 2.19998 3.49997 2.09998C3.39997 1.99998 3.19997 1.90002 2.99997 1.90002C2.79997 1.90002 2.59997 1.99998 2.49997 2.09998C2.39997 2.19998 2.29996 2.39998 2.29996 2.59998C2.09996 2.59998 1.99996 2.69999 1.79996 2.79999C1.69996 2.89999 1.59998 3.09999 1.59998 3.29999C1.59998 3.49999 1.69996 3.69999 1.79996 3.79999C1.99996 3.79999 2.09996 3.90002 2.29996 3.90002ZM2.09998 3.20001C2.09998 3.10001 2.09998 3.1 2.19998 3C2.29998 3 2.29996 2.90002 2.39996 2.90002H2.59998C2.69998 2.90002 2.79996 2.80001 2.79996 2.70001V2.5C2.79996 2.4 2.79996 2.39999 2.89996 2.29999C2.99996 2.19999 2.99998 2.20001 3.09998 2.20001C3.19998 2.20001 3.19996 2.19999 3.29996 2.29999C3.29996 2.39999 3.39996 2.4 3.39996 2.5V2.70001C3.39996 2.80001 3.49998 2.90002 3.59998 2.90002H3.79996C3.89996 2.90002 3.89997 2.9 3.99997 3C4.09997 3.1 4.09998 3.10001 4.09998 3.20001C4.09998 3.30001 4.09997 3.30002 3.99997 3.40002C3.89997 3.50002 3.89996 3.5 3.79996 3.5H3.59998C3.49998 3.5 3.39996 3.60001 3.39996 3.70001V3.90002C3.39996 4.00002 3.39996 3.99998 3.29996 4.09998C3.19996 4.19998 3.19998 4.20001 3.09998 4.20001C2.99998 4.20001 2.99996 4.19998 2.89996 4.09998C2.79996 3.99998 2.79996 4.00002 2.79996 3.90002V3.70001C2.79996 3.60001 2.69998 3.5 2.59998 3.5H2.39996C2.29996 3.5 2.29998 3.50002 2.19998 3.40002C2.09998 3.30002 2.09998 3.20001 2.09998 3.20001Z" fill="white"/>
<path d="M7.60002 1.79999C7.80002 1.79999 8.00001 2.00001 8.00001 2.20001C8.00001 2.40001 7.80002 2.59998 7.60002 2.59998C7.40002 2.59998 7.20002 2.40001 7.20002 2.20001C7.10002 2.00001 7.30002 1.79999 7.60002 1.79999Z" fill="white"/>
<path d="M7.60002 3.59998C7.80002 3.59998 8.00001 3.8 8.00001 4C8.00001 4.2 7.80002 4.40002 7.60002 4.40002C7.40002 4.40002 7.20002 4.2 7.20002 4C7.10002 3.8 7.30002 3.59998 7.60002 3.59998Z" fill="white"/>
<path d="M6.70002 2.70001C6.90002 2.70001 7.10002 2.89998 7.10002 3.09998C7.10002 3.29998 6.90002 3.5 6.70002 3.5C6.50002 3.5 6.3 3.29998 6.3 3.09998C6.2 2.89998 6.40002 2.70001 6.70002 2.70001Z" fill="white"/>
<path d="M8.39999 2.70001C8.59999 2.70001 8.79999 2.89998 8.79999 3.09998C8.79999 3.29998 8.59999 3.5 8.39999 3.5C8.19999 3.5 8 3.29998 8 3.09998C8 2.89998 8.19999 2.70001 8.39999 2.70001Z" fill="white"/>
</svg>
