<svg width="10" height="8" viewBox="0 0 10 8" fill="none" xmlns="http://www.w3.org/2000/svg">
<path d="M2.20004 0.5C2.10004 0.5 2.00003 0.499976 2.00003 0.599976C1.90003 0.699976 1.90002 0.699988 1.90002 0.799988V5.40002C1.90002 5.60002 2.00004 5.70001 2.20004 5.70001C2.90004 5.70001 4.10003 5.90001 5.00003 6.70001V2C5.00003 1.9 5.00003 1.89999 5.00003 1.79999C4.20003 0.699988 2.90004 0.5 2.20004 0.5Z" fill="white"/>
<path d="M8.5 5.5V0.900024C8.5 0.800024 8.49999 0.700012 8.39999 0.700012C8.29999 0.600012 8.30001 0.599976 8.20001 0.599976C7.50001 0.599976 6.2 0.800024 5.5 1.90002C5.5 1.90002 5.5 1.99998 5.5 2.09998V6.90002C6.3 6.00002 7.49999 5.90002 8.29999 5.90002C8.29999 5.80002 8.5 5.6 8.5 5.5Z" fill="white"/>
<path d="M9.20004 1.59998H9.00003V5.5C9.00003 5.9 8.60004 6.29999 8.20004 6.29999C7.60004 6.29999 6.60002 6.39998 5.90002 7.09998C7.10002 6.79998 8.40004 7.00001 9.20004 7.20001C9.30004 7.20001 9.40003 7.19998 9.50003 7.09998C9.60003 6.99998 9.60004 7.00002 9.60004 6.90002V2C9.50004 1.7 9.40004 1.59998 9.20004 1.59998Z" fill="white"/>
<path d="M1.40002 5.5V1.59998H1.20004C1.00004 1.59998 0.900024 1.70002 0.900024 1.90002V6.79999C0.900024 6.89999 0.900031 7 1.00003 7C1.10003 7.1 1.20002 7.09998 1.30002 7.09998C2.00002 6.89998 3.30004 6.7 4.60004 7C3.90004 6.3 2.90002 6.20001 2.30002 6.20001C1.80002 6.30001 1.40002 5.9 1.40002 5.5Z" fill="white"/>
</svg>
