<svg width="20" height="20" viewBox="0 0 20 20" fill="none" xmlns="http://www.w3.org/2000/svg">
<circle cx="10" cy="10" r="10" fill="#231F20"/>
<path fill-rule="evenodd" clip-rule="evenodd" d="M17 10C17 13.8658 13.8658 17 10 17C6.13425 17 3 13.8658 3 10C3 6.13425 6.13425 3 10 3C13.8658 3 17 6.13425 17 10ZM10.2508 8.16775C9.57008 8.45067 8.20917 9.03692 6.16867 9.92592C5.83733 10.0578 5.6635 10.1867 5.64775 10.3127C5.62092 10.5262 5.88808 10.6102 6.25092 10.7239C6.3005 10.7397 6.35183 10.7554 6.40433 10.7729C6.76192 10.889 7.24258 11.0249 7.49225 11.0302C7.71917 11.0348 7.97233 10.9415 8.25175 10.7502C10.1581 9.46275 11.1422 8.81233 11.204 8.79833C11.2478 8.78842 11.3084 8.77558 11.3492 8.81233C11.3901 8.8485 11.386 8.91733 11.3819 8.936C11.3551 9.04858 10.3086 10.0222 9.76608 10.5262C9.59692 10.6831 9.47733 10.7945 9.45283 10.8202C9.398 10.8768 9.342 10.931 9.28833 10.9829C8.95583 11.3026 8.70733 11.5429 9.30233 11.9349C9.58817 12.1233 9.81683 12.2791 10.0449 12.4343C10.294 12.604 10.5425 12.7732 10.8645 12.9843C10.9462 13.038 11.0243 13.0934 11.1008 13.1477C11.3907 13.3548 11.6514 13.5403 11.9734 13.5111C12.1601 13.4936 12.3538 13.318 12.4518 12.7936C12.6833 11.5534 13.1395 8.86775 13.2451 7.76058C13.2515 7.66866 13.2476 7.5763 13.2334 7.48525C13.2249 7.41171 13.1891 7.34404 13.1331 7.29567C13.0497 7.22742 12.9202 7.21283 12.8618 7.214C12.5988 7.21867 12.1951 7.35925 10.2508 8.16775Z" fill="white"/>
</svg>
