<svg width="9" height="7" viewBox="0 0 9 7" fill="none" xmlns="http://www.w3.org/2000/svg">
<path d="M5.59998 3.70001L4 2.70001H3.90002L3.79999 2.79999V4.79999C3.79999 4.89999 3.80002 4.90002 3.90002 4.90002C3.90002 4.90002 3.9 4.90002 4 4.90002H4.09998L5.70001 3.90002L5.79999 3.79999C5.69999 3.79999 5.59998 3.70001 5.59998 3.70001ZM4.09998 4.59998V3.09998L5.29999 3.79999L4.09998 4.59998Z" fill="white"/>
<path d="M8.5 0.5H0.400024C0.300024 0.5 0.299988 0.599976 0.299988 0.599976V6.90002C0.299988 7.00002 0.400024 7 0.400024 7H8.5C8.6 7 8.59998 6.90002 8.59998 6.90002V0.599976C8.69998 0.599976 8.6 0.5 8.5 0.5ZM1.79999 3.70001H0.599976V2.40002H1.79999V3.70001ZM0.599976 4H1.79999V5.29999H0.599976V4ZM2.09998 5.40002V0.799988H7V6.90002H2.09998V5.40002ZM8.40002 3.70001H7.20001V2.40002H8.40002V3.70001ZM7.29999 4H8.5V5.29999H7.29999V4ZM8.40002 0.799988V2.09998H7.20001V0.799988H8.40002ZM0.599976 0.799988H1.79999V2.09998H0.599976V0.799988ZM0.599976 6.90002V5.59998H1.79999V6.90002H0.599976ZM8.40002 6.90002H7.20001V5.59998H8.40002V6.90002Z" fill="white"/>
</svg>
